<?xml version="1.0" standalone="no"?>
<!DOCTYPE svg PUBLIC "-//W3C//DTD SVG 20010904//EN"
 "http://www.w3.org/TR/2001/REC-SVG-20010904/DTD/svg10.dtd">
<svg version="1.0" xmlns="http://www.w3.org/2000/svg"
 width="1024" height="376.742" viewBox="0 0 1024 276.742" >

<g transform="translate(0.000000,425.000000) scale(0.100000,-0.100000)"
fill="#d81f26" stroke="none">
<path d="M1665 4133 c-11 -3 -30 -14 -42 -26 l-23 -20 0 -955 0 -955 28 -23
c15 -13 29 -25 32 -25 28 -7 60 -4 81 8 56 33 54 12 59 638 l5 580 24 -75 c13
-41 34 -106 46 -145 12 -38 35 -110 50 -160 15 -49 38 -121 50 -160 12 -38 35
-110 50 -160 16 -49 39 -124 52 -165 13 -41 28 -91 34 -110 17 -53 37 -80 72
-95 38 -16 79 -4 107 32 20 25 20 41 20 897 -1 859 -1 871 -21 895 -28 35
-108 36 -141 3 l-23 -23 -5 -527 c-5 -576 -3 -556 -51 -377 -6 22 -17 55 -25
73 -8 18 -14 43 -14 55 0 13 -4 27 -9 33 -10 11 -41 107 -41 129 0 8 -4 23 -9
33 -12 22 -40 102 -44 127 -2 11 -7 28 -11 37 -4 9 -9 22 -10 30 -5 27 -28
103 -36 118 -7 14 -38 115 -45 150 -10 42 -47 126 -62 141 -20 19 -67 29 -98
22z"/>
<path d="M3843 4132 c-60 -19 -82 -108 -39 -159 l24 -28 151 -3 151 -3 0 -681
c0 -671 0 -681 20 -698 11 -10 34 -23 50 -30 25 -10 34 -9 62 7 71 41 68 13
66 746 l-3 657 140 0 c133 1 142 2 169 25 26 20 30 31 30 72 0 39 -5 54 -25
74 l-24 24 -375 2 c-206 1 -385 -1 -397 -5z"/>
<path d="M4965 4133 c-11 -3 -30 -14 -42 -26 -31 -28 -32 -103 -2 -138 l21
-24 311 -3 c172 -2 327 0 345 3 69 13 93 114 41 166 l-24 24 -315 2 c-173 0
-324 -1 -335 -4z"/>
<path d="M5937 4130 c-59 -18 -56 20 -56 -795 0 -574 2 -754 12 -766 7 -9 26
-23 44 -32 28 -15 72 -17 323 -17 321 0 346 4 374 59 19 36 20 64 4 94 -28 52
-24 52 -304 55 l-262 3 0 662 c0 454 -3 671 -11 690 -7 17 -24 34 -46 42 -38
17 -39 17 -78 5z"/>
<path d="M6952 4133 c-12 -2 -33 -19 -47 -37 l-25 -33 0 -779 0 -779 23 -28
c41 -51 141 -46 166 9 8 18 11 247 11 807 l0 782 -23 27 c-22 27 -64 39 -105
31z"/>
<path d="M7543 4133 c-30 -6 -63 -54 -63 -91 0 -17 12 -59 26 -94 14 -35 30
-72 34 -83 43 -107 98 -240 117 -282 12 -28 23 -57 23 -63 0 -6 7 -22 16 -35
9 -14 13 -25 10 -25 -4 0 -1 -12 8 -27 33 -62 57 -136 50 -151 -4 -10 -8 -19
-9 -22 -5 -15 -28 -67 -49 -113 -54 -117 -99 -214 -113 -247 -16 -38 -51 -115
-88 -195 -25 -54 -48 -107 -50 -115 -1 -3 -11 -26 -23 -53 -12 -26 -21 -48
-21 -50 0 -1 -11 -25 -25 -53 -31 -62 -32 -88 -6 -131 21 -35 69 -51 112 -38
24 7 68 51 68 67 0 9 17 47 75 173 47 103 67 150 67 155 -1 3 6 15 14 27 7 12
23 46 35 74 34 87 117 269 123 269 2 0 16 -30 31 -67 15 -38 33 -79 40 -93 7
-14 13 -27 13 -30 0 -3 6 -18 12 -35 7 -16 16 -39 20 -50 22 -58 46 -115 67
-162 12 -28 23 -57 23 -63 0 -6 7 -22 16 -35 9 -14 13 -25 10 -25 -4 0 -1 -12
8 -27 8 -16 35 -80 61 -143 70 -175 90 -196 172 -183 26 4 36 14 52 47 21 42
20 66 -4 121 -7 17 -17 41 -23 55 -6 14 -23 56 -39 95 -15 38 -28 72 -29 75 0
3 -10 27 -22 53 -12 27 -22 52 -22 57 0 5 -6 21 -14 37 -15 29 -17 35 -62 148
-15 39 -38 93 -51 122 -12 28 -23 57 -23 63 0 5 -4 18 -9 28 -5 9 -28 64 -51
122 -24 58 -47 115 -53 128 -7 15 -7 29 0 45 29 60 54 117 53 119 -1 2 12 31
29 65 17 34 31 65 31 68 0 3 14 36 31 73 17 37 40 87 51 112 34 77 67 148 93
203 55 114 16 186 -95 177 -43 -3 -47 -9 -135 -192 -14 -29 -25 -57 -25 -61 0
-7 -28 -71 -81 -183 -10 -22 -19 -46 -19 -52 0 -7 -4 -12 -10 -12 -5 0 -10 -8
-10 -17 -1 -10 -7 -29 -14 -41 l-13 -24 -12 34 c-7 18 -19 47 -26 63 -7 17
-17 41 -23 55 -6 14 -23 56 -39 95 -15 38 -28 72 -29 75 0 3 -10 27 -22 53
-12 27 -22 54 -22 60 0 7 -7 21 -15 31 -8 11 -15 27 -15 36 0 9 -12 30 -27 47
-28 32 -67 45 -110 36z"/>
<path d="M2806 4104 c-21 -21 -26 -36 -26 -73 1 -96 19 -101 388 -101 199 0
306 4 328 12 65 23 86 113 38 162 l-27 26 -337 0 -337 0 -27 -26z"/>
<path d="M2801 3356 c-34 -36 -32 -109 4 -142 l27 -25 343 3 343 3 21 25 c30
37 28 102 -4 135 l-26 25 -343 0 -343 0 -22 -24z"/>
<path d="M4923 3356 l-23 -24 0 -377 c0 -409 -3 -387 59 -419 27 -15 38 -15
61 -6 65 27 65 22 70 354 l5 301 201 5 c222 6 227 7 239 71 7 38 -4 77 -30
102 -14 15 -48 17 -288 17 l-272 0 -22 -24z"/>
<path d="M2802 2607 c-30 -31 -30 -102 -1 -137 l21 -25 343 -3 343 -3 26 26
c35 35 36 95 2 136 l-24 28 -344 1 -344 0 -22 -23z"/>
</g>
</svg>
